HIERARCHY
ROOT Hips
{
	OFFSET 0.00000 0.00000 0.00000
	CHANNELS 6 Xposition Yposition Zposition Zrotation Yrotation Xrotation 
	JOINT LHipJoint
	{
		OFFSET 0 0 0
		CHANNELS 3 Zrotation Yrotation Xrotation
		JOINT LeftUpLeg
		{
			OFFSET 1.59801 -1.77853 0.57028
			CHANNELS 3 Zrotation Yrotation Xrotation
			JOINT LeftLeg
			{
				OFFSET 2.39439 -6.57854 0.00000
				CHANNELS 3 Zrotation Yrotation Xrotation
				JOINT LeftFoot
				{
					OFFSET 2.69334 -7.39989 0.00000
					CHANNELS 3 Zrotation Yrotation Xrotation
					JOINT LeftToeBase
					{
						OFFSET 0.09553 -0.26245 1.73747
						CHANNELS 3 Zrotation Yrotation Xrotation
						End Site
						{
							OFFSET 0.00000 -0.00000 0.89391
						}
					}
				}
			}
		}
	}
	JOINT RHipJoint
	{
		OFFSET 0 0 0
		CHANNELS 3 Zrotation Yrotation Xrotation
		JOINT RightUpLeg
		{
			OFFSET -1.54704 -1.77852 0.57028
			CHANNELS 3 Zrotation Yrotation Xrotation
			JOINT RightLeg
			{
				OFFSET -2.40286 -6.60180 0.00000
				CHANNELS 3 Zrotation Yrotation Xrotation
				JOINT RightFoot
				{
					OFFSET -2.63873 -7.24984 0.00000
					CHANNELS 3 Zrotation Yrotation Xrotation
					JOINT RightToeBase
					{
						OFFSET -0.15631 -0.42945 1.84436
						CHANNELS 3 Zrotation Yrotation Xrotation
						End Site
						{
							OFFSET -0.00000 -0.00000 0.95734
						}
					}
				}
			}
		}
	}
	JOINT LowerBack
	{
		OFFSET 0 0 0
		CHANNELS 3 Zrotation Yrotation Xrotation
		JOINT Spine
		{
			OFFSET -0.00436 1.89866 -0.04018
			CHANNELS 3 Zrotation Yrotation Xrotation
			JOINT Spine1
			{
				OFFSET 0.02031 1.88273 0.09634
				CHANNELS 3 Zrotation Yrotation Xrotation
				JOINT Neck
				{
					OFFSET 0 0 0
					CHANNELS 3 Zrotation Yrotation Xrotation
					JOINT Neck1
					{
						OFFSET -0.13105 1.89371 0.23083
						CHANNELS 3 Zrotation Yrotation Xrotation
						JOINT Head
						{
							OFFSET 0.17062 1.83990 -0.54062
							CHANNELS 3 Zrotation Yrotation Xrotation
							End Site
							{
								OFFSET 0.04576 1.94782 -0.21839
							}
						}
					}
				}
				JOINT LeftShoulder
				{
					OFFSET 0 0 0
					CHANNELS 3 Zrotation Yrotation Xrotation
					JOINT LeftArm
					{
						OFFSET 3.12424 1.09204 0.22226
						CHANNELS 3 Zrotation Yrotation Xrotation
						JOINT LeftForeArm
						{
							OFFSET 5.29277 -0.00000 0.00000
							CHANNELS 3 Zrotation Yrotation Xrotation
							JOINT LeftHand
							{
								OFFSET 2.85226 -0.00000 0.00000
								CHANNELS 3 Zrotation Yrotation Xrotation
								JOINT LeftFingerBase
								{
									OFFSET 0 0 0
									CHANNELS 3 Zrotation Yrotation Xrotation
									JOINT LeftHandIndex1
									{
										OFFSET 0.60210 -0.00000 0.00000
										CHANNELS 3 Zrotation Yrotation Xrotation
										End Site
										{
											OFFSET 0.48543 -0.00000 0.00000
										}
									}
								}
								JOINT LThumb
								{
									OFFSET 0 0 0
									CHANNELS 3 Zrotation Yrotation Xrotation
									End Site
									{
										OFFSET 0.49284 -0.00000 0.49284
									}
								}
							}
						}
					}
				}
				JOINT RightShoulder
				{
					OFFSET 0 0 0
					CHANNELS 3 Zrotation Yrotation Xrotation
					JOINT RightArm
					{
						OFFSET -2.91709 1.01504 0.30199
						CHANNELS 3 Zrotation Yrotation Xrotation
						JOINT RightForeArm
						{
							OFFSET -5.13304 -0.00000 0.00000
							CHANNELS 3 Zrotation Yrotation Xrotation
							JOINT RightHand
							{
								OFFSET -2.74305 -0.00000 0.00000
								CHANNELS 3 Zrotation Yrotation Xrotation
								JOINT RightFingerBase
								{
									OFFSET 0 0 0
									CHANNELS 3 Zrotation Yrotation Xrotation
									JOINT RightHandIndex1
									{
										OFFSET -0.76798 -0.00000 0.00000
										CHANNELS 3 Zrotation Yrotation Xrotation
										End Site
										{
											OFFSET -0.61916 -0.00000 0.00000
										}
									}
								}
								JOINT RThumb
								{
									OFFSET 0 0 0
									CHANNELS 3 Zrotation Yrotation Xrotation
									End Site
									{
										OFFSET -0.62862 -0.00000 0.62862
									}
								}
							}
						}
					}
				}
			}
		}
	}
}
MOTION
Frames: 14
Frame Time: .0083333
0.2677 17.4834 0.6074 0 0 0 0 0 0 -21 0 0 0 0 0 0 0 0 0 0 0 0 0 0 21 0 0 0 0 0 0 0 0 0 0 0 0 0 0 0 0 0 0 0 0 0 0 -16 0 0 21 0 0 11 0 0 0 -8 0 0 0 0 0 0 0 0 0 0 0 0 0 0 0 0 0 0 0 0 8 0 0 0 0 0 0 0 0 0 0 0 0 0 0 0 0 0
0.2677 17.4834 0.6074 -0.3432 3.4699 6.5710 0.0000 0.0000 0.0000 -18.3929 -21.0963 0.2372 0.5009 4.5371 12.5929 0.3285 7.6449 -16.2229 0.9563 -6.2272 -17.4450 0.0000 0.0000 0.0000 0.0000 0.0000 0.0000 0.0000 0.0000 0.0000 -0.0000 -0.0000 0.0000 -0.0000 -0.0000 0.0000 -1.3402 -0.3244 -2.5371 0.8154 -0.4053 -3.5665 1.5856 -0.1583 -2.2228 -19.2503 -12.3934 -8.5482 20.6233 -18.9037 18.7930 7.9060 -8.5123 11.4967 -0.0000 0.0000 0.0000 -91.3015 -0.4717 31.4697 6.2197 -10.6280 -0.5791 -0.0000 -0.0000 18.1502 3.7216 24.8714 1.5671 -7.1250 0.0000 -0.0000 -26.4623 52.8795 -5.4352 -0.0000 0.0000 0.0000 84.6470 -8.9857 41.8688 -15.6836 25.0898 -3.5107 0.0000 0.0000 9.5807 1.4059 13.5323 0.3290 7.1250 -0.0000 -0.0000 19.5303 -16.8764 13.8545
0.2669 17.4832 0.6097 -0.4520 3.5045 6.5419 0.0000 0.0000 0.0000 -18.2816 -21.1410 0.1799 0.5141 4.5955 12.7584 0.3340 7.6146 -16.2650 0.9444 -6.1893 -17.3347 0.0000 0.0000 0.0000 0.0000 0.0000 0.0000 0.0000 0.0000 0.0000 -0.0000 -0.0000 0.0000 -0.0000 -0.0000 0.0000 -1.2472 -0.3432 -2.5871 0.8488 -0.4302 -3.5530 1.5673 -0.1730 -2.1801 -19.2924 -12.3820 -8.6502 20.5530 -18.8760 18.9586 7.8933 -8.4985 11.5677 0.0000 0.0000 0.0000 -91.5626 -0.9708 31.4330 5.5880 -9.5732 -0.4683 -0.0000 -0.0000 18.9592 4.5304 24.9228 1.9124 -7.1250 0.0000 -0.0000 -25.7322 53.0668 -5.3905 0.0000 0.0000 0.0000 84.9026 -8.9026 41.5237 -15.4001 24.7005 -3.3914 0.0000 0.0000 9.9027 0.9446 13.5158 0.2208 7.1250 -0.0000 -0.0000 19.2306 -16.8836 13.6113
0.2645 17.4833 0.6112 -0.4407 3.5206 6.5215 0.0000 0.0000 0.0000 -18.2886 -21.1574 0.1840 0.5169 4.6081 12.7940 0.3305 7.6536 -16.2579 0.9854 -6.3184 -17.7112 0.0000 0.0000 0.0000 0.0000 0.0000 0.0000 0.0000 0.0000 0.0000 -0.0000 -0.0000 0.0000 -0.0000 -0.0000 0.0000 -1.3348 -0.3599 -2.6238 0.8723 -0.4510 -3.5409 1.6400 -0.1813 -2.1457 -19.3132 -12.3944 -8.7258 20.4438 -18.8642 19.0436 7.8549 -8.4964 11.5994 -0.0000 -0.0000 0.0000 -91.7987 -1.4091 31.4098 5.0519 -8.6719 -0.3833 -0.0000 -0.0000 19.7089 5.1129 24.9497 2.1615 -7.1250 0.0000 -0.0000 -25.1976 53.1935 -5.3473 -0.0000 -0.0000 0.0000 85.1387 -8.8342 41.2262 -15.1015 24.2873 -3.2676 0.0000 0.0000 10.4140 0.4801 13.5054 0.1121 7.1250 -0.0000 -0.0000 18.9276 -16.8842 13.3699
0.2634 17.4838 0.6131 -0.4021 3.5192 6.5067 0.0000 0.0000 0.0000 -18.3327 -21.1560 0.1991 0.5186 4.6154 12.8147 0.3302 7.6577 -16.2577 0.9910 -6.3357 -17.7617 0.0000 0.0000 0.0000 0.0000 0.0000 0.0000 0.0000 0.0000 0.0000 -0.0000 -0.0000 0.0000 -0.0000 -0.0000 0.0000 -1.4041 -0.3922 -2.6317 0.8603 -0.4935 -3.5567 1.6663 -0.2009 -2.1556 -19.2663 -12.3601 -8.7633 20.3310 -18.7958 19.1040 7.8173 -8.4674 11.5923 -0.0000 -0.0000 0.0000 -91.9295 -1.5733 31.3244 4.7978 -8.2430 -0.3459 -0.0000 -0.0000 20.3919 5.1176 24.8939 2.1589 -7.1250 0.0000 -0.0000 -25.1591 53.1441 -5.3068 -0.0000 -0.0000 0.0000 85.3846 -8.8093 41.1331 -14.8218 23.8972 -3.1534 0.0000 0.0000 10.8823 -0.1241 13.4761 -0.0289 7.1250 -0.0000 -0.0000 18.5337 -16.8987 13.0523
0.2639 17.4826 0.6134 -0.4427 3.5343 6.4561 0.0000 0.0000 0.0000 -18.3081 -21.1315 0.3029 0.5118 4.5854 12.7299 0.3289 7.6315 -16.2157 0.9560 -6.2262 -17.4420 0.0000 0.0000 0.0000 0.0000 0.0000 0.0000 0.0000 0.0000 0.0000 -0.0000 -0.0000 0.0000 -0.0000 -0.0000 0.0000 -1.3348 -0.4035 -2.5807 0.8484 -0.5100 -3.5689 1.6155 -0.2106 -2.1966 -19.2672 -12.3403 -8.7569 20.2889 -18.7601 19.1260 7.8095 -8.4549 11.5850 -0.0000 -0.0000 0.0000 -92.0063 -1.6209 31.2950 4.6787 -8.0415 -0.3291 -0.0000 -0.0000 20.9500 5.0006 24.8983 2.1097 -7.1250 0.0000 -0.0000 -25.2726 53.1275 -5.3226 -0.0000 -0.0000 0.0000 85.7036 -8.7620 40.8005 -14.4997 23.4446 -3.0241 0.0000 0.0000 11.6121 -0.8294 13.5233 -0.1940 7.1250 -0.0000 -0.0000 18.0645 -16.8365 12.7107
0.2631 17.4827 0.6150 -0.3639 3.5429 6.4033 0.0000 0.0000 0.0000 -18.4181 -21.1060 0.4361 0.5041 4.5513 12.6330 0.3283 7.6451 -16.2210 0.9390 -6.1723 -17.2851 0.0000 0.0000 0.0000 0.0000 0.0000 0.0000 0.0000 0.0000 0.0000 -0.0000 -0.0000 0.0000 -0.0000 -0.0000 0.0000 -1.4162 -0.4174 -2.5347 0.8142 -0.5288 -3.5803 1.6264 -0.2181 -2.2332 -19.3185 -12.3253 -8.7807 20.2800 -18.7396 19.2111 7.8218 -8.4474 11.6214 -0.0000 0.0000 0.0000 -92.0435 -1.5848 31.2738 4.6640 -8.0166 -0.3270 -0.0000 -0.0000 21.5704 4.7437 25.0554 2.0127 -7.1250 0.0000 -0.0000 -25.6122 53.2234 -5.4642 -0.0000 0.0000 0.0000 86.0349 -8.7484 40.3099 -14.2168 23.0438 -2.9124 0.0000 0.0000 12.4775 -1.4368 13.5345 -0.3363 7.1250 -0.0000 -0.0000 17.6622 -16.8093 12.4084
0.2632 17.4826 0.6160 -0.2185 3.5751 6.3863 0.0000 0.0000 0.0000 -18.5921 -21.1302 0.5216 0.4985 4.5266 12.5632 0.3236 7.6870 -16.2011 0.9392 -6.1727 -17.2862 0.0000 0.0000 0.0000 0.0000 0.0000 0.0000 0.0000 0.0000 0.0000 -0.0000 -0.0000 0.0000 -0.0000 -0.0000 0.0000 -1.5666 -0.4529 -2.5274 0.7757 -0.5757 -3.5869 1.6710 -0.2383 -2.2416 -19.3536 -12.2847 -8.7707 20.2753 -18.6711 19.1998 7.8405 -8.4205 11.6018 -0.0000 -0.0000 0.0000 -92.0894 -1.5078 31.2222 4.7231 -8.1166 -0.3353 -0.0000 -0.0000 22.2371 4.3886 24.9164 1.8519 -7.1250 0.0000 -0.0000 -25.8620 53.0361 -5.4006 -0.0000 -0.0000 0.0000 86.2983 -8.7384 39.9953 -14.0042 22.7407 -2.8297 0.0000 0.0000 13.1184 -2.0670 13.4221 -0.4800 7.1250 -0.0000 -0.0000 17.2542 -16.8980 12.0574
0.2615 17.4809 0.6171 -0.1800 3.6192 6.3952 0.0000 0.0000 0.0000 -18.6279 -21.1647 0.5665 0.4927 4.5004 12.4889 0.3237 7.6729 -16.1879 0.9425 -6.1833 -17.3171 0.0000 0.0000 0.0000 0.0000 0.0000 0.0000 0.0000 0.0000 0.0000 -0.0000 -0.0000 0.0000 -0.0000 -0.0000 0.0000 -1.6320 -0.4649 -2.5771 0.7650 -0.5905 -3.5759 1.6960 -0.2447 -2.2014 -19.3546 -12.2865 -8.8059 20.2170 -18.6450 19.1708 7.8192 -8.4113 11.5839 0.0000 0.0000 0.0000 -92.1019 -1.4473 31.2435 4.8188 -8.2785 -0.3489 -0.0000 -0.0000 22.9834 3.9043 24.6978 1.6334 -7.1250 0.0000 -0.0000 -26.1840 52.7563 -5.2892 0.0000 0.0000 0.0000 86.6432 -8.6764 39.2803 -13.7794 22.4185 -2.7434 0.0000 0.0000 14.0820 -2.4165 13.3928 -0.5600 7.1250 -0.0000 -0.0000 17.0244 -16.9152 11.8743
0.2583 17.4800 0.6180 -0.2029 3.6363 6.4088 0.0000 0.0000 0.0000 -18.5896 -21.1824 0.5547 0.4926 4.5000 12.4877 0.3208 7.6888 -16.1665 0.9649 -6.2542 -17.5238 0.0000 0.0000 0.0000 0.0000 0.0000 0.0000 0.0000 0.0000 0.0000 -0.0000 -0.0000 0.0000 -0.0000 -0.0000 0.0000 -1.6595 -0.4778 -2.6134 0.7827 -0.6065 -3.5766 1.7293 -0.2521 -2.1806 -19.3797 -12.2987 -8.8740 20.1496 -18.6285 19.1730 7.7959 -8.4062 11.5883 0.0000 -0.0000 0.0000 -92.1287 -1.3097 31.2273 5.0046 -8.5922 -0.3762 -0.0000 -0.0000 23.7453 3.3837 24.5124 1.4052 -7.1250 0.0000 -0.0000 -26.5586 52.5011 -5.2010 0.0000 -0.0000 0.0000 86.9571 -8.6249 38.4794 -13.6148 22.1813 -2.6809 0.0000 0.0000 14.9280 -2.3887 13.3384 -0.5514 7.1250 -0.0000 -0.0000 17.0474 -16.9680 11.8712
0.2572 17.4800 0.6180 -0.2357 3.6257 6.4428 0.0000 0.0000 0.0000 -18.5355 -21.1921 0.4782 0.4976 4.5223 12.5510 0.3212 7.7111 -16.1934 0.9796 -6.3003 -17.6581 0.0000 0.0000 0.0000 0.0000 0.0000 0.0000 0.0000 0.0000 0.0000 -0.0000 -0.0000 0.0000 -0.0000 -0.0000 0.0000 -1.6557 -0.4915 -2.6499 0.7958 -0.6242 -3.5961 1.7403 -0.2607 -2.1795 -19.3930 -12.2776 -8.8839 20.1295 -18.5831 19.1502 7.7981 -8.3881 11.5695 0.0000 0.0000 0.0000 -92.0922 -1.0900 31.1757 5.2655 -9.0318 -0.4162 -0.0000 -0.0000 24.4407 2.6294 24.2965 1.0825 -7.1250 0.0000 -0.0000 -27.1303 52.1808 -5.1046 0.0000 0.0000 0.0000 87.2637 -8.5990 37.5164 -13.5104 22.0305 -2.6417 0.0000 0.0000 15.7473 -2.1032 13.3765 -0.4868 7.1250 -0.0000 -0.0000 17.2340 -16.9405 12.0251
0.2581 17.4801 0.6200 -0.3203 3.5542 6.4264 0.0000 0.0000 0.0000 -18.4636 -21.1226 0.4381 0.5041 4.5513 12.6331 0.3229 7.6872 -16.1917 0.9894 -6.3309 -17.7476 0.0000 0.0000 0.0000 0.0000 0.0000 0.0000 0.0000 0.0000 0.0000 -0.0000 -0.0000 0.0000 -0.0000 -0.0000 0.0000 -1.5831 -0.4808 -2.6567 0.8237 -0.6101 -3.6087 1.7284 -0.2548 -2.1896 -19.3393 -12.2271 -8.8962 20.0267 -18.4823 19.1294 7.7678 -8.3461 11.5201 -0.0000 0.0000 0.0000 -92.0388 -0.8171 31.1182 5.6044 -9.6007 -0.4710 -0.0000 -0.0000 25.1111 1.7225 23.9422 0.6992 -7.1250 0.0000 -0.0000 -27.7550 51.7155 -4.9056 -0.0000 0.0000 0.0000 87.5523 -8.5487 36.2529 -13.3720 21.8299 -2.5900 0.0000 0.0000 16.7894 -1.7439 13.5857 -0.4098 7.1250 -0.0000 -0.0000 17.4546 -16.7514 12.2707
0.2616 17.4792 0.6248 -0.3372 3.4316 6.3822 0.0000 0.0000 0.0000 -18.5089 -20.9920 0.4578 0.5100 4.5776 12.7076 0.3329 7.6567 -16.2919 0.9580 -6.2324 -17.4603 0.0000 0.0000 0.0000 0.0000 0.0000 0.0000 0.0000 0.0000 0.0000 -0.0000 -0.0000 0.0000 -0.0000 -0.0000 0.0000 -1.5587 -0.4664 -2.6445 0.8204 -0.5915 -3.6320 1.7117 -0.2457 -2.2216 -19.2197 -12.1579 -8.9378 19.8684 -18.3612 19.1890 7.7111 -8.2915 11.4877 -0.0000 -0.0000 0.0000 -91.9699 -0.4809 31.0340 5.9708 -10.2134 -0.5341 -0.0000 -0.0000 25.8777 0.9614 23.2888 0.3801 -7.1250 0.0000 -0.0000 -28.0641 51.0151 -4.4595 -0.0000 -0.0000 0.0000 87.8361 -8.5239 34.8866 -13.2753 21.6893 -2.5541 0.0000 0.0000 17.8718 -1.1731 13.7350 -0.2786 7.1250 -0.0000 -0.0000 17.8189 -16.6258 12.6057
0.2633 17.4792 0.6278 -0.4244 3.4128 6.3328 0.0000 0.0000 0.0000 -18.4530 -20.9573 0.4828 0.5165 4.6063 12.7889 0.3510 7.5513 -16.4208 0.8877 -6.0058 -16.8011 0.0000 0.0000 0.0000 0.0000 0.0000 0.0000 0.0000 0.0000 0.0000 -0.0000 -0.0000 0.0000 -0.0000 -0.0000 0.0000 -1.4799 -0.4743 -2.6133 0.8384 -0.6029 -3.6542 1.6863 -0.2525 -2.2619 -19.1328 -12.1108 -8.9495 19.7559 -18.2797 19.2204 7.6698 -8.2560 11.4581 -0.0000 -0.0000 0.0000 -91.8648 -0.1305 30.9789 6.3514 -10.8470 -0.6036 -0.0000 -0.0000 26.6204 0.3217 22.5864 0.1236 -7.1250 0.0000 -0.0000 -28.2379 50.2953 -3.9626 -0.0000 -0.0000 0.0000 88.0755 -8.5097 33.5155 -13.2433 21.6427 -2.5423 0.0000 0.0000 18.8247 -0.5479 13.7033 -0.1298 7.1250 -0.0000 -0.0000 18.2334 -16.6727 12.9121
